<?xml version="1.0" encoding="utf-8"?>
<svg fill="none" height="108" viewBox="0 0 108 108" width="108" xmlns="http://www.w3.org/2000/svg"><style>
path {
  stroke-dasharray: 1000;
  stroke-dashoffset: 1000;
  animation: draw 3s ease forwards;
}

@keyframes draw {
  to {
    stroke-dashoffset: 0;
  }
}
</style>
<path d="M0 54C0 24.1766 24.1766 0 54 0C83.8234 0 108 24.1766 108 54C108 83.8234 83.8234 108 54 108C24.1766 108 0 83.8234 0 54Z" fill="#FFE7F0"/>
<path d="M61.25 75.75V63.6667C61.25 63.0257 60.9954 62.411 60.5422 61.9578C60.089 61.5046 59.4743 61.25 58.8333 61.25H49.1667C48.5257 61.25 47.911 61.5046 47.4578 61.9578C47.0046 62.411 46.75 63.0257 46.75 63.6667V75.75" stroke="#FC156A" stroke-linecap="round" stroke-linejoin="round" stroke-width="4"/>
<path d="M67.9538 49.9158C67.45 49.4336 66.7795 49.1644 66.0821 49.1644C65.3847 49.1644 64.7142 49.4336 64.2104 49.9158C63.0867 50.9877 61.5934 51.5856 60.0405 51.5856C58.4875 51.5856 56.9942 50.9877 55.8705 49.9158C55.3668 49.4343 54.6968 49.1655 54 49.1655C53.3032 49.1655 52.6332 49.4343 52.1295 49.9158C51.0056 50.9884 49.5118 51.5868 47.9583 51.5868C46.4048 51.5868 44.911 50.9884 43.7872 49.9158C43.2834 49.4336 42.6129 49.1644 41.9155 49.1644C41.218 49.1644 40.5475 49.4336 40.0437 49.9158C38.9583 50.9517 37.5262 51.5465 36.0263 51.5847C34.5264 51.6228 33.066 51.1015 31.9293 50.1222C30.7926 49.1429 30.061 47.7756 29.8768 46.2866C29.6926 44.7976 30.0691 43.2933 30.9329 42.0665L37.9147 31.9552C38.3577 31.3015 38.9541 30.7663 39.6517 30.3964C40.3494 30.0265 41.127 29.8332 41.9167 29.8333H66.0833C66.8707 29.833 67.6462 30.0251 68.3424 30.3928C69.0386 30.7605 69.6344 31.2927 70.0781 31.9431L77.0743 42.0738C77.9384 43.3015 78.3143 44.8069 78.129 46.2967C77.9437 47.7865 77.2103 49.154 76.0718 50.1326C74.9333 51.1112 73.4713 51.6309 71.9705 51.5904C70.4698 51.5499 69.0379 50.952 67.9538 49.9134" stroke="#FC156A" stroke-linecap="round" stroke-linejoin="round" stroke-width="4"/>
<path d="M34.6667 51.4625V70.9167C34.6667 72.1986 35.1759 73.4279 36.0823 74.3344C36.9887 75.2408 38.2181 75.75 39.5 75.75H68.5C69.7819 75.75 71.0113 75.2408 71.9177 74.3344C72.8241 73.4279 73.3333 72.1986 73.3333 70.9167V51.4625" stroke="#FC156A" stroke-linecap="round" stroke-linejoin="round" stroke-width="4"/>
<path d="M38.5142 30.3475C38.5142 30.3475 32.761 39.8381 30.9907 43.3786C29.2205 46.919 29.5984 47.8301 30.9907 50.017C33.3279 53.6878 39.2223 52.9378 42.0547 48.6893C45.5951 52.9378 51.4959 50.7546 54.0038 49.1318C56.069 50.9021 61.4387 53.3804 66.3954 49.1318C74.5385 53.7344 77.4593 48.7471 77.9019 45.6782C78.3445 42.6092 69.0507 30.3475 69.0507 30.3475H38.5142Z" fill="#FC156A"/>
</svg>